# xmcd
#
# Track frame offsets: 
#        150
#        18238
#        43278
#        46227
#        63017
#        87873
#        106683
#        121848
#        149411
#        169707
#        187029
#        214144
#
# Disc length: 3229 seconds
#
# Revision: 1
# Processed by: cddbd v1.5.2PL0 Copyright (c) Steve Scherf et al.
# Submitted via: ExactAudioCopy v0.99pb4
#
DISCID=9e0c9b0c
DTITLE=Viarosa - Send For The Sea
DYEAR=2008
DGENRE=
TTITLE0=Tourniquet
TTITLE1=Righteous Path
TTITLE2=some of you know the story
TTITLE3=The Old Walls
TTITLE4=Cruel Pull Of The Stars
TTITLE5=Without A Cause
TTITLE6=Beggars and Thieves
TTITLE7=Ode To Sunlight
TTITLE8=Harness
TTITLE9=The Last Resolve
TTITLE10=Shame On The Light
TTITLE11=The Sea
EXTD=
EXTT0=
EXTT1=
EXTT2=
EXTT3=
EXTT4=
EXTT5=
EXTT6=
EXTT7=
EXTT8=
EXTT9=
EXTT10=
EXTT11=
PLAYORDER=
